<?xml version="1.0" standalone="no"?>
<!-- Generator: Adobe Fireworks 10, Export SVG Extension by Aaron Beall (http://fireworks.abeall.com) . Version: 0.6.1  -->
<!DOCTYPE svg PUBLIC "-//W3C//DTD SVG 1.1//EN" "http://www.w3.org/Graphics/SVG/1.1/DTD/svg11.dtd">
<svg id="logo_svg.fw-Page%201" viewBox="0 0 300 114" style="background-color:#ffffff00" version="1.1"
	xmlns="http://www.w3.org/2000/svg" xmlns:xlink="http://www.w3.org/1999/xlink" xml:space="preserve"
	x="0px" y="0px" width="300px" height="114px"
>
	<defs>
		<filter id="filter1" x="-100%" y="-100%" width="300%" height="300%">
			<!-- Drop Shadow -->
			<feOffset result="out" in="SourceGraphic" dx="0" dy="2"/>
			<feColorMatrix result="out" in="out" type="matrix" values="0 0 0 0 0  0 0 0 0 0  0 0 0 0 0  0 0 0 0.2 0"/>
			<feGaussianBlur result="out" in="out" stdDeviation="3"/>
			<feBlend in="SourceGraphic" in2="out" mode="normal" result="Drop_Shadow1"/>
		</filter>
		<filter id="filter2" x="-100%" y="-100%" width="300%" height="300%">
			<!-- Drop Shadow -->
			<feOffset result="out" in="SourceGraphic" dx="0" dy="2"/>
			<feColorMatrix result="out" in="out" type="matrix" values="0 0 0 0 0  0 0 0 0 0  0 0 0 0 0  0 0 0 0.2 0"/>
			<feGaussianBlur result="out" in="out" stdDeviation="1"/>
			<feBlend in="SourceGraphic" in2="out" mode="normal" result="Drop_Shadow2"/>
		</filter>
		<linearGradient id="gradient1" x1="50%" y1="0%" x2="50%" y2="100%">
			<stop stop-color="#ffffff" stop-opacity="1" offset="28%"/>
			<stop stop-color="#e6e7e7" stop-opacity="1" offset="99%"/>
		</linearGradient>
	</defs>
	<g id="Layer%201">
		<path filter="url(#filter1)" d="M 56.4961 103.7925 C 29.2021 103.7925 6.9961 81.5864 6.9961 54.2925 C 6.9961 26.9985 29.2021 4.7925 56.4961 4.7925 C 83.79 4.7925 105.9961 26.9985 105.9961 54.2925 C 105.9961 81.5864 83.79 103.7925 56.4961 103.7925 Z" fill="#27aabe"/>
		<path d="M 56.4961 5.7925 C 83.2813 5.7925 104.9961 27.5073 104.9961 54.2925 C 104.9961 81.0796 83.2813 102.7925 56.4961 102.7925 C 29.7109 102.7925 7.9961 81.0796 7.9961 54.2925 C 7.9961 27.5073 29.7109 5.7925 56.4961 5.7925 L 56.4961 5.7925 ZM 56.4961 3.7925 C 28.6504 3.7925 5.9961 26.4468 5.9961 54.2925 C 5.9961 82.1382 28.6504 104.7925 56.4961 104.7925 C 84.3418 104.7925 106.9961 82.1382 106.9961 54.2925 C 106.9961 26.4468 84.3418 3.7925 56.4961 3.7925 L 56.4961 3.7925 Z" fill="#ffffff"/>
		<path filter="url(#filter2)" d="M 96.2041 50.3179 L 58.4395 50.3179 L 58.4395 59.4819 L 86.875 59.4819 C 83.6016 75.6694 70.6113 85.0366 56.5986 85.0366 C 40.7441 85.0366 25.8105 72.3101 25.8105 54.2886 C 25.8105 36.4702 40.3359 23.5405 56.5986 23.5405 C 63.4512 23.5405 71.5322 26.3901 77.7715 32.1948 L 83.7539 25.1655 C 76.6191 18.4878 67.0371 14.3921 56.4941 14.3921 C 34.4531 14.3921 16.5859 32.2593 16.5859 54.3003 C 16.5859 75.5796 33.2402 92.9644 54.2246 94.1421 C 55.0059 94.1792 55.7969 94.2007 56.5986 94.2007 C 57.2695 94.2007 57.9365 94.1851 58.6016 94.1538 C 79.6631 93.0581 96.4023 75.6343 96.4023 54.3003 C 96.4023 52.9565 96.334 51.6284 96.2041 50.3179 Z" fill="url(#gradient1)"/>
		<g>
			<path d="M 112.7656 80.4868 L 118.5186 80.4868 L 118.5186 31.6001 L 112.7656 31.6001 L 112.7656 80.4868 Z" fill="#313130"/>
			<path d="M 160.7012 67.4165 L 129.625 31.6001 L 127.8555 31.6001 L 127.8555 80.4868 L 133.7705 80.4868 L 133.7705 45.1196 L 164.6523 80.4868 L 166.4541 80.4868 L 166.4541 31.6001 L 160.7012 31.6001 L 160.7012 67.4165 Z" fill="#313130"/>
			<path d="M 232.9814 80.4868 L 261.2295 80.4868 L 261.2295 74.7339 L 238.7344 74.7339 L 238.7344 56.9829 L 261.2295 56.9829 L 261.2295 51.2632 L 238.7344 51.2632 L 238.7344 37.353 L 261.4248 37.353 L 261.4248 31.6001 L 232.9814 31.6001 L 232.9814 80.4868 Z" fill="#313130"/>
			<path d="M 283.1426 58.2036 C 286.7559 58.104 289.6699 57.5708 291.8125 56.6157 C 296.7383 54.4536 299.2363 50.4888 299.2363 44.8286 C 299.2363 41.6899 298.3291 38.9556 296.54 36.7056 C 294.75 34.4536 292.2949 32.9595 289.2451 32.2642 C 287.3262 31.8237 283.6523 31.6001 278.3252 31.6001 L 268.2871 31.6001 L 268.2871 80.4868 L 274.04 80.4868 L 274.04 58.2202 L 276.0293 58.2202 L 293.1318 80.2935 L 293.2822 80.4868 L 300.4414 80.4868 L 283.1426 58.2036 ZM 274.04 52.5366 L 274.04 37.3208 L 281.998 37.3208 C 285.2051 37.3208 287.5273 37.5981 288.8994 38.145 C 290.2324 38.6763 291.3076 39.561 292.0957 40.7739 C 292.8867 41.9927 293.2881 43.3579 293.2881 44.8296 C 293.2881 46.3677 292.8867 47.77 292.0947 49.0005 C 290.5518 51.3892 287.1797 52.6001 282.0732 52.5991 L 274.04 52.5366 Z" fill="#313130"/>
			<path d="M 202.1182 53.4058 L 202.1182 59.2681 L 220.3105 59.2681 C 218.2168 69.6245 209.9053 75.6177 200.9404 75.6177 C 190.7979 75.6177 181.2441 67.4761 181.2441 55.9448 C 181.2441 44.5464 190.5361 36.2749 200.9404 36.2749 C 205.3242 36.2749 210.4951 38.0981 214.4863 41.812 L 218.3135 37.3149 C 213.749 33.0425 207.6191 30.4224 200.874 30.4224 C 186.7734 30.4224 175.3418 41.853 175.3418 55.9556 C 175.3418 69.563 185.9893 80.6831 199.4072 81.4419 C 199.9121 81.4663 200.4219 81.479 200.9404 81.479 C 201.3701 81.479 201.8008 81.4692 202.2275 81.4487 C 215.6982 80.7466 226.4053 69.6011 226.4053 55.9556 C 226.4053 55.0942 226.3613 54.2446 226.2783 53.4058 L 202.1182 53.4058 Z" fill="#313130"/>
		</g>
	</g>
</svg>