<svg width="21" height="22" fill="none" xmlns="http://www.w3.org/2000/svg"><path d="M18.43 2.633c-4.917 4.97-7.77 8.54-10.985 14.09M5.09 21a124.71 124.71 0 012.354-4.276m0 0c7.395-2.038 10.062-5.488 12.195-14.187.175-.712-.463-1.352-1.168-1.15-6.22 1.788-10.67 5.829-11.027 15.337z" stroke="#3D3D3D" stroke-width="1.2"/><path d="M3.338 2.37l.901 2.5 2.436.924-2.436.925-.901 2.499-.902-2.5L0 5.795l2.436-.925.902-2.499zM1.777 15.513l-.45-1.25-1.218-.462 1.218-.463.45-1.25.451 1.25 1.218.463-1.218.462-.45 1.25zM15.687 16.065l.631 1.75 1.705.647-1.705.647-.631 1.75-.631-1.75-1.705-.647 1.705-.647.631-1.75z" fill="#3D3D3D"/></svg>